<?xml version="1.0" encoding="UTF-8"?>
<svg version="1.1" xmlns="http://www.w3.org/2000/svg" width="500" height="500">
<path d="M0 0 C165 0 330 0 500 0 C500 62.7 500 125.4 500 190 C497.69 190 495.38 190 493 190 C493 129.61 493 69.22 493 7 C332.62 7 172.24 7 7 7 C7 116.56 7 226.12 7 339 C77.62 339 148.24 339 221 339 C221 341.31 221 343.62 221 346 C148.07 346 75.14 346 0 346 C0 231.82 0 117.64 0 0 Z " fill="#080808" transform="translate(0,76)"/>
<path d="M0 0 C5.2949705 7.12231087 6.83721926 13.14246288 6 22 C4.1750797 28.81148598 -0.23584457 32.30646351 -6 36 C-3.36 36.33 -0.72 36.66 2 37 C2 37.99 2 38.98 2 40 C-5.26 40 -12.52 40 -20 40 C-20 39.34 -20 38.68 -20 38 C-20.65226562 37.74347656 -21.30453125 37.48695313 -21.9765625 37.22265625 C-28.92330018 34.17961629 -32.56618654 30.76625973 -36 24 C-37.87749119 18.36752643 -37.93023685 12.29391528 -35.5 6.8125 C-32.11529338 0.95755135 -27.22729074 -3.72788116 -20.625 -5.5625 C-13.14806476 -6.73763144 -5.70387928 -5.0406375 0 0 Z M-25 7 C-27.910372 11.365558 -28.6506249 14.79500079 -28 20 C-25.96369455 23.78171013 -23.91524129 27.09528802 -20 29 C-15.73443112 29.57729504 -12.14745274 29.44900325 -8.125 27.875 C-4.93802532 25.06296352 -3.37126722 22.26835216 -2.6796875 18.04296875 C-2.38646874 12.93118832 -3.59170635 9.96098992 -7 6 C-9.92672672 3.62697833 -11.68309204 3.04033374 -15.4375 2.5625 C-19.7426591 3.09120375 -21.72712679 4.17342768 -25 7 Z " fill="#0C0C0C" transform="translate(297,226)"/>
<path d="M0 0 C4.99197197 3.74397898 9.84206804 7.45058124 14.5625 11.5 C15.08779297 11.94730469 15.61308594 12.39460937 16.15429688 12.85546875 C20.11090154 16.2275201 24.05295156 19.61681562 28 23 C28.33 15.41 28.66 7.82 29 0 C31.97 0 34.94 0 38 0 C38 13.86 38 27.72 38 42 C35.02249955 40.51124977 33.27509213 39.55071504 30.8984375 37.4609375 C30.33012207 36.96625977 29.76180664 36.47158203 29.17626953 35.96191406 C28.58185059 35.43823242 27.98743164 34.91455078 27.375 34.375 C21.69112371 29.42977395 15.91918911 24.66360354 10 20 C9.67 27.26 9.34 34.52 9 42 C6.03 42 3.06 42 0 42 C0 28.14 0 14.28 0 0 Z " fill="#0C0C0C" transform="translate(167,221)"/>
<path d="M0 0 C2.97 0 5.94 0 9 0 C9.01981934 0.82725586 9.03963867 1.65451172 9.06005859 2.50683594 C9.15531212 6.25487806 9.26499109 10.00236317 9.375 13.75 C9.4059375 15.05195313 9.436875 16.35390625 9.46875 17.6953125 C9.50742187 18.94570312 9.54609375 20.19609375 9.5859375 21.484375 C9.6173584 22.63647461 9.6487793 23.78857422 9.68115234 24.97558594 C9.98668037 27.87365727 10.40042306 29.59104139 12 32 C15.12942465 33.56471233 18.61082223 33.69701958 22 33 C24.92228292 30.75626258 25.90231539 29.55762361 26.54589844 25.88378906 C26.57731934 24.09279785 26.57731934 24.09279785 26.609375 22.265625 C26.64160156 20.97011719 26.67382812 19.67460937 26.70703125 18.33984375 C26.72177469 16.97656698 26.73609222 15.61328555 26.75 14.25 C26.77816814 12.87105624 26.80809678 11.49214725 26.83984375 10.11328125 C26.91056725 6.74212784 26.96325504 3.3716672 27 0 C29.97 0 32.94 0 36 0 C36.07468157 4.00178342 36.12885021 8.00329167 36.16479492 12.00561523 C36.17979409 13.36441117 36.20020038 14.72315941 36.22631836 16.08178711 C36.52253049 31.89719186 36.52253049 31.89719186 31.31640625 37.9609375 C30.73761719 38.42757812 30.15882813 38.89421875 29.5625 39.375 C28.69818359 40.09816406 28.69818359 40.09816406 27.81640625 40.8359375 C23.6961442 43.47644953 18.76376818 43.62136107 14 43 C8.74010093 41.24670031 4.96110626 38.78332549 2 34 C0.25970321 29.61532576 -0.23846774 25.99298314 -0.1953125 21.2890625 C-0.18886719 20.04511719 -0.18242187 18.80117187 -0.17578125 17.51953125 C-0.15902344 16.23433594 -0.14226562 14.94914063 -0.125 13.625 C-0.11597656 12.31660156 -0.10695313 11.00820312 -0.09765625 9.66015625 C-0.07415085 6.4399163 -0.04129087 3.22005293 0 0 Z " fill="#0D0D0D" transform="translate(309,221)"/>
<path d="M0 0 C2.64468093 3.2806099 4.51877637 6.74034607 6.43359375 10.48828125 C6.91240746 11.42041695 6.91240746 11.42041695 7.40089417 12.37138367 C8.41661999 14.34997348 9.42735643 16.33105525 10.4375 18.3125 C11.44480228 20.28284614 12.45320773 22.25261226 13.46339417 24.22148132 C14.38338861 26.01538584 15.30006701 27.81098984 16.21655273 29.60668945 C17.50231028 32.05306099 18.82442691 34.42612897 20.22290039 36.80541992 C22 40 22 40 22 42 C20.39815374 42.1352403 18.79303374 42.23210847 17.1875 42.3125 C16.29417969 42.37050781 15.40085938 42.42851562 14.48046875 42.48828125 C13.66191406 42.32714844 12.84335938 42.16601562 12 42 C11.59394531 41.18144531 11.18789062 40.36289062 10.76953125 39.51953125 C9.30411574 36.84926482 9.30411574 36.84926482 7.03979492 36.50805664 C4.50986039 36.3253665 2.03572664 36.31848306 -0.5 36.375 C-1.36753906 36.35566406 -2.23507813 36.33632813 -3.12890625 36.31640625 C-5.53681037 36.33501447 -7.6632232 36.41413397 -10 37 C-11.84312808 39.42841988 -11.84312808 39.42841988 -13 42 C-15.26171875 42.48828125 -15.26171875 42.48828125 -17.6875 42.3125 C-18.49574219 42.26738281 -19.30398437 42.22226562 -20.13671875 42.17578125 C-21.05904297 42.08876953 -21.05904297 42.08876953 -22 42 C-21.55011719 41.10023438 -21.10023437 40.20046875 -20.63671875 39.2734375 C-20.17978638 38.35933105 -20.17978638 38.35933105 -19.71362305 37.42675781 C-19.01899206 36.03782638 -18.32382671 34.64916208 -17.62817383 33.26074219 C-15.44778221 28.90656476 -13.28030796 24.54634144 -11.125 20.1796875 C-10.63813721 19.19693848 -10.15127441 18.21418945 -9.6496582 17.20166016 C-8.68663981 15.25761401 -7.72675933 13.31200979 -6.77026367 11.36474609 C-6.10087769 10.01630615 -6.10087769 10.01630615 -5.41796875 8.640625 C-4.82665161 7.44228027 -4.82665161 7.44228027 -4.22338867 6.21972656 C-2.98621942 3.9749964 -1.58563413 2.01009618 0 0 Z M-1 17 C-2.65 20.63 -4.3 24.26 -6 28 C-2.04 28 1.92 28 6 28 C4.35 24.37 2.7 20.74 1 17 C0.34 17 -0.32 17 -1 17 Z " fill="#0F0F0F" transform="translate(141,221)"/>
<path d="M0 0 C7.59 0 15.18 0 23 0 C23 2.64 23 5.28 23 8 C18.38 8 13.76 8 9 8 C9 10.64 9 13.28 9 16 C14.28 16 19.56 16 25 16 C25 18.64 25 21.28 25 24 C19.72 24 14.44 24 9 24 C9 27.3 9 30.6 9 34 C14.61 34 20.22 34 26 34 C26 36.64 26 39.28 26 42 C17.42 42 8.84 42 0 42 C0 28.14 0 14.28 0 0 Z " fill="#0D0D0D" transform="translate(352,221)"/>
<path d="M0 0 C9.9 0 19.8 0 30 0 C30 2.64 30 5.28 30 8 C26.37 8 22.74 8 19 8 C19 19.22 19 30.44 19 42 C16.03 42 13.06 42 10 42 C10 30.78 10 19.56 10 8 C6.7 8 3.4 8 0 8 C0 5.36 0 2.72 0 0 Z " fill="#0B0B0B" transform="translate(210,221)"/>
<path d="M0 0 C13.86 0 27.72 0 42 0 C42 2.64 42 5.28 42 8 C40 7 40 7 38.75 4.5 C37.17845358 1.67649412 37.17845358 1.67649412 33.8125 1.1875 C32.884375 1.125625 31.95625 1.06375 31 1 C31 4.3 31 7.6 31 11 C33.31 11 35.62 11 38 11 C38 11.33 38 11.66 38 12 C35.69 12 33.38 12 31 12 C31 15.63 31 19.26 31 23 C36.24224624 22.00888222 36.24224624 22.00888222 39.875 18.375 C40.24625 17.59125 40.6175 16.8075 41 16 C41.33 16 41.66 16 42 16 C42 18.64 42 21.28 42 24 C35.07 24 28.14 24 21 24 C22.32 23.67 23.64 23.34 25 23 C25 15.74 25 8.48 25 1 C23.68 1 22.36 1 21 1 C21 3.31 21 5.62 21 8 C20.34 8 19.68 8 19 8 C18.649375 7.030625 18.29875 6.06125 17.9375 5.0625 C16.24996333 1.60565398 16.24996333 1.60565398 12.3125 1.125 C11.219375 1.08375 10.12625 1.0425 9 1 C9 4.3 9 7.6 9 11 C11.64 11 14.28 11 17 11 C17 11.33 17 11.66 17 12 C14.36 12 11.72 12 9 12 C9 15.63 9 19.26 9 23 C10.65 23 12.3 23 14 23 C14 23.33 14 23.66 14 24 C9.38 24 4.76 24 0 24 C0.99 23.67 1.98 23.34 3 23 C3 15.74 3 8.48 3 1 C2.01 0.67 1.02 0.34 0 0 Z " fill="#121212" transform="translate(364,285)"/>
<path d="M0 0 C0 2.64 0 5.28 0 8 C-2 7 -2 7 -3.25 4.4375 C-3.8275 3.633125 -4.405 2.82875 -5 2 C-8.15989415 1.61307419 -10.13879744 1.56939872 -13 3 C-14.11221955 6.33665865 -14.20253779 8.98779662 -14.25 12.5 C-14.27578125 13.6446875 -14.3015625 14.789375 -14.328125 15.96875 C-14.25351089 18.96660399 -14.25351089 18.96660399 -12.66796875 20.87109375 C-9.9524974 22.70896546 -8.17777326 22.58367264 -5 22 C-2.57577814 19.11490087 -2.57577814 19.11490087 -1 16 C1 18 1 18 1 22 C1.99 22.33 2.98 22.66 4 23 C4.15855469 22.42894531 4.31710937 21.85789062 4.48046875 21.26953125 C6.56953464 14.00973874 9.21646302 7.01935413 12 0 C13.32 0 14.64 0 16 0 C17.50585523 3.45581315 19.00368289 6.91504753 20.5 10.375 C20.92925781 11.35984375 21.35851562 12.3446875 21.80078125 13.359375 C22.20683594 14.30039062 22.61289062 15.24140625 23.03125 16.2109375 C23.59682617 17.51490479 23.59682617 17.51490479 24.17382812 18.84521484 C25 21 25 21 25 23 C25.66 23.33 26.32 23.66 27 24 C23.37 24 19.74 24 16 24 C16.99 23.67 17.98 23.34 19 23 C17.93973184 19.25207871 17.93973184 19.25207871 16 16 C13.20799134 15.030782 11.00602421 15.04927909 8 15 C7.7834375 16.1446875 7.7834375 16.1446875 7.5625 17.3125 C7 20 7 20 6 23 C6.99 23.33 7.98 23.66 9 24 C5.27098186 24.08736736 1.54222835 24.14051482 -2.1875 24.1875 C-3.77014648 24.22520508 -3.77014648 24.22520508 -5.38476562 24.26367188 C-6.91713867 24.27817383 -6.91713867 24.27817383 -8.48046875 24.29296875 C-9.41785889 24.3086792 -10.35524902 24.32438965 -11.32104492 24.34057617 C-14.54829317 23.93029536 -16.37919782 22.89823009 -19 21 C-22.10917807 16.6471507 -22.37989236 13.23304322 -21.5703125 8.1171875 C-20.71191545 4.93053543 -19.45319199 3.18798205 -17 1 C-11.53079643 -1.9346946 -5.92412937 -0.7800455 0 0 Z M12 6 C9.7986134 9.80427492 9.7986134 9.80427492 9 14 C11.31 14 13.62 14 16 14 C15.01 11.36 14.02 8.72 13 6 C12.67 6 12.34 6 12 6 Z " fill="#141414" transform="translate(336,285)"/>
<path d="M0 0 C2.97 0 5.94 0 9 0 C9 13.86 9 27.72 9 42 C6.03 42 3.06 42 0 42 C0 28.14 0 14.28 0 0 Z " fill="#0B0B0B" transform="translate(245,221)"/>
<path d="M0 0 C1.32 0 2.64 0 4 0 C5.50585523 3.45581315 7.00368289 6.91504753 8.5 10.375 C8.92925781 11.35984375 9.35851562 12.3446875 9.80078125 13.359375 C10.20683594 14.30039062 10.61289062 15.24140625 11.03125 16.2109375 C11.40830078 17.08024902 11.78535156 17.94956055 12.17382812 18.84521484 C13 21 13 21 13 23 C13.66 23.33 14.32 23.66 15 24 C11.37 24 7.74 24 4 24 C4.99 23.67 5.98 23.34 7 23 C5.93973184 19.25207871 5.93973184 19.25207871 4 16 C1.20799134 15.030782 -0.99397579 15.04927909 -4 15 C-3.43179252 9.54520815 -2.05362055 5.08940744 0 0 Z M0 6 C-2.2013866 9.80427492 -2.2013866 9.80427492 -3 14 C-0.69 14 1.62 14 4 14 C3.01 11.36 2.02 8.72 1 6 C0.67 6 0.34 6 0 6 Z " fill="#141414" transform="translate(348,285)"/>
<path d="M0 0 C0.33 0 0.66 0 1 0 C0.54177532 3.46941546 0.10868317 6.67395049 -1 10 C-0.01 10.33 0.98 10.66 2 11 C-5.59 11 -13.18 11 -21 11 C-18 9 -18 9 -15.0625 9.25 C-14.051875 9.1675 -13.04125 9.085 -12 9 C-9.57577814 6.11490087 -9.57577814 6.11490087 -8 3 C-6 5 -6 5 -6 9 C-5.01 9.33 -4.02 9.66 -3 10 C-2.01 6.7 -1.02 3.4 0 0 Z " fill="#292929" transform="translate(343,298)"/>
<path d="M0 0 C3.96 0 7.92 0 12 0 C12 2.64 12 5.28 12 8 C10 7 10 7 8.75 4.5 C7.17845358 1.67649412 7.17845358 1.67649412 3.8125 1.1875 C2.4203125 1.0946875 2.4203125 1.0946875 1 1 C1 4.3 1 7.6 1 11 C0.67 11 0.34 11 0 11 C0 7.37 0 3.74 0 0 Z " fill="#3F3F3F" transform="translate(394,285)"/>
<path d="M0 0 C0.98484375 0.10183594 1.9696875 0.20367187 2.984375 0.30859375 C4.10585938 0.43427734 4.10585938 0.43427734 5.25 0.5625 C5.25 3.2025 5.25 5.8425 5.25 8.5625 C3.25 7.5625 3.25 7.5625 2.125 5 C0.56281474 2.37772724 0.56281474 2.37772724 -1.65234375 2.3046875 C-3.68563493 2.37087058 -5.71793461 2.46573498 -7.75 2.5625 C-8.41 1.9025 -9.07 1.2425 -9.75 0.5625 C-6.33860997 -0.53401823 -3.54344419 -0.37965473 0 0 Z " fill="#303030" transform="translate(330.75,284.4375)"/>
<path d="M0 0 C4.29 0 8.58 0 13 0 C12.67 2.64 12.34 5.28 12 8 C11.34 8 10.68 8 10 8 C9.649375 7.030625 9.29875 6.06125 8.9375 5.0625 C7.24996333 1.60565398 7.24996333 1.60565398 3.3125 1.125 C1.6728125 1.063125 1.6728125 1.063125 0 1 C0 0.67 0 0.34 0 0 Z " fill="#343434" transform="translate(373,285)"/>
<path d="M0 0 C0.33 0 0.66 0 1 0 C1 2.64 1 5.28 1 8 C-0.32 7.67 -1.64 7.34 -3 7 C-2.01 4.69 -1.02 2.38 0 0 Z " fill="#1E1E1E" transform="translate(405,301)"/>
</svg>
